<svg xmlns="http://www.w3.org/2000/svg" width="485" height="82" viewBox="0 0 485 82">
  <g id="Group_17" data-name="Group 17" transform="translate(-3963 -1367.849)">
    <g id="button-bg" transform="translate(3963 1367.349)">
      <rect id="Rectangle_431" data-name="Rectangle 431" width="485" height="82" rx="2" transform="translate(0 0.5)" fill="#fff"/>
    </g>
    <text id="Link_Discord" data-name="Link Discord" transform="translate(4070 1420.849)" fill="#5771e2" font-size="34" font-family="Poppins-Medium, Poppins" font-weight="500"><tspan x="0" y="0">Sign In with Discord</tspan></text>
    <path id="icon-discord" d="M25.4,0A25.266,25.266,0,1,0,50.8,25.266,25.266,25.266,0,0,0,25.4,0Zm6.875,38.631L31.49,35.9l1.9,1.754,1.793,1.651,3.186,2.8V15.669a3.037,3.037,0,0,0-3.037-3.036H15.473a3.037,3.037,0,0,0-3.037,3.036V35.6a3.037,3.037,0,0,0,3.037,3.036Zm-2.667-6.75-.978-1.194a4.674,4.674,0,0,0,2.682-1.754,8.5,8.5,0,0,1-1.7.87,9.791,9.791,0,0,1-2.148.634,10.434,10.434,0,0,1-3.838-.015,12.488,12.488,0,0,1-2.178-.634,8.705,8.705,0,0,1-1.082-.5l-.059-.034-.015-.006-.059-.034-.059-.044-.415-.251a4.606,4.606,0,0,0,2.593,1.739l-.993,1.223a5.377,5.377,0,0,1-4.519-2.24,19.657,19.657,0,0,1,2.134-8.592A7.353,7.353,0,0,1,23.133,19.5l.148.177a10.012,10.012,0,0,0-3.9,1.931l.874-.427a11.174,11.174,0,0,1,3.363-.929l.252-.029a12.6,12.6,0,0,1,2.993-.029,12.124,12.124,0,0,1,4.46,1.415,9.876,9.876,0,0,0-3.689-1.872l.207-.236a7.353,7.353,0,0,1,4.164,1.548,19.657,19.657,0,0,1,2.134,8.592,5.546,5.546,0,0,1-4.531,2.24ZM28.127,25a1.641,1.641,0,1,0,1.511,1.636A1.574,1.574,0,0,0,28.127,25Zm-5.408,0a1.641,1.641,0,1,0,1.511,1.636A1.574,1.574,0,0,0,22.718,25Z" transform="translate(3986 1383.849)" fill="rgba(75,0,177,0.84)" fill-rule="evenodd"/>
  </g>
</svg>
