<svg xmlns="http://www.w3.org/2000/svg" width="54" height="54" viewBox="0 0 54 54">
  <path id="discord-icon" d="M27,54A27.007,27.007,0,0,1,16.49,2.122,27.007,27.007,0,0,1,37.51,51.878,26.832,26.832,0,0,1,27,54ZM39.228,33.335a6.749,6.749,0,0,1-1.256,1.387,11.078,11.078,0,0,1-4.25,2.234c.9,1.135,2,2.457,2.012,2.465a12.254,12.254,0,0,0,7.181-2.395,8.8,8.8,0,0,0,2.133-2.236A39.673,39.673,0,0,0,42.857,22.24a36.225,36.225,0,0,0-2.192-5.2,15.074,15.074,0,0,0-8.52-3.2h-.034l-.426.487a24.859,24.859,0,0,1,5.73,2.526,12.517,12.517,0,0,1,1.85,1.341,25.5,25.5,0,0,0-12.158-3.1H27.08a26.292,26.292,0,0,0-10.552,2.21c-.671.313-1.245.595-1.754.862l-.038.021a12.593,12.593,0,0,1,1.946-1.4,25.242,25.242,0,0,1,6.056-2.587l-.3-.366H22.4a15.074,15.074,0,0,0-8.52,3.2,35.995,35.995,0,0,0-2.191,5.2A39.688,39.688,0,0,0,9.5,34.793a8.673,8.673,0,0,0,2.119,2.233,12.391,12.391,0,0,0,7.163,2.395s1.118-1.364,2.039-2.531a10.935,10.935,0,0,1-4.113-2.23A6.686,6.686,0,0,1,15.493,33.3c.337.234.849.528,1.1.669l.152.088a22.274,22.274,0,0,0,10.648,2.718h.125a21.215,21.215,0,0,0,8.216-1.645A17.464,17.464,0,0,0,39.228,33.335ZM21.573,31.959a3.391,3.391,0,0,1,0-6.758h.006a3,3,0,0,1,2.132.913,3.473,3.473,0,0,1,.967,2.466A3.267,3.267,0,0,1,21.573,31.959Zm11.112-.525a3.118,3.118,0,0,1-3.1-2.854,3.509,3.509,0,0,1,.9-2.385,2.963,2.963,0,0,1,2.2-.994,3.116,3.116,0,0,1,.175,6.228C32.8,31.432,32.743,31.434,32.685,31.434Z" fill="#fff" opacity="0.85"/>
</svg>
