<svg xmlns="http://www.w3.org/2000/svg" width="485" height="82" viewBox="0 0 485 82">
  <g id="Group_13" data-name="Group 13" transform="translate(-3578 -1073.849)">
    <g id="button" transform="translate(3578 1073.349)">
      <g id="button-bg">
        <rect id="Rectangle_431" data-name="Rectangle 431" width="485" height="82" rx="2" transform="translate(0 0.5)" fill="#fff"/>
      </g>
    </g>
    <g id="logo_googleg_48dp" transform="translate(3606.63 1096.189)">
      <path id="Shape" d="M26.775,11.151a21.275,21.275,0,0,0-.337-3.787H9v7.162h9.965a8.517,8.517,0,0,1-3.695,5.588V24.76h5.984a18.057,18.057,0,0,0,5.521-13.609Z" transform="translate(9.515 7.785)" fill="#4285f4" fill-rule="evenodd"/>
      <path id="Shape-2" data-name="Shape" d="M17.5,25.707a17.677,17.677,0,0,0,12.254-4.486L23.77,16.575a11.129,11.129,0,0,1-6.27,1.767A11.034,11.034,0,0,1,7.143,10.71H.957v4.8A18.508,18.508,0,0,0,17.5,25.707Z" transform="translate(1.012 11.323)" fill="#34a853" fill-rule="evenodd"/>
      <path id="Shape-3" data-name="Shape" d="M8.155,16.791a10.946,10.946,0,0,1,0-7.036v-4.8H1.969a18.539,18.539,0,0,0,0,16.63l6.186-4.8Z" transform="translate(0 5.242)" fill="#fbbc05" fill-rule="evenodd"/>
      <path id="Shape-4" data-name="Shape" d="M17.5,7.364a10,10,0,0,1,7.078,2.769l5.31-5.31A17.794,17.794,0,0,0,17.5,0,18.51,18.51,0,0,0,.955,10.2L7.143,15A11.034,11.034,0,0,1,17.5,7.364Z" transform="translate(1.012)" fill="#ea4335" fill-rule="evenodd"/>
      <path id="Shape-5" data-name="Shape" d="M0,0H37.03V37.03H0Z" fill="none" fill-rule="evenodd"/>
    </g>
    <text id="Sign_In_with_Google" data-name="Sign In with Google" transform="translate(3685 1128.849)" fill="#5771e2" font-size="36" font-family="Futura-Medium, Futura" font-weight="500"><tspan x="0" y="0">Sign In with Google</tspan></text>
  </g>
</svg>
