<svg xmlns="http://www.w3.org/2000/svg" width="54" height="54" viewBox="0 0 54 54">
  <path id="help-icon" d="M54.563,27.562a27,27,0,1,1-27-27A27,27,0,0,1,54.563,27.562ZM28.287,9.49c-5.933,0-9.717,2.5-12.689,6.941a1.308,1.308,0,0,0,.3,1.77l3.778,2.864a1.306,1.306,0,0,0,1.814-.231c1.945-2.467,3.278-3.9,6.239-3.9,2.224,0,4.975,1.431,4.975,3.588,0,1.63-1.346,2.468-3.542,3.7-2.561,1.436-5.95,3.223-5.95,7.693v.435a1.307,1.307,0,0,0,1.306,1.306h6.1a1.307,1.307,0,0,0,1.306-1.306v-.145c0-3.1,9.057-3.228,9.057-11.613C40.974,14.28,34.424,9.49,28.287,9.49Zm-.725,27A5.008,5.008,0,1,0,32.571,41.5,5.014,5.014,0,0,0,27.562,36.49Z" transform="translate(-0.563 -0.563)" fill="#fff" opacity="0.848"/>
</svg>
