<svg xmlns="http://www.w3.org/2000/svg" width="64.022" height="64.022" viewBox="0 0 64.022 64.022">
  <path id="logo_github" d="M32.011,0C14.336,0,0,14.695,0,32.818A32.769,32.769,0,0,0,21.893,63.962c1.6.3,2.116-.714,2.116-1.578v-6.11C15.1,58.261,13.251,52.4,13.251,52.4a8.756,8.756,0,0,0-3.556-4.8c-2.91-2.038.222-1.987.222-1.987A6.659,6.659,0,0,1,14.822,49c2.854,5.016,7.487,3.566,9.315,2.726a7.051,7.051,0,0,1,2.032-4.386c-7.109-.843-14.583-3.656-14.583-16.229a12.888,12.888,0,0,1,3.3-8.809,12.076,12.076,0,0,1,.312-8.685s2.689-.881,8.805,3.364a29.622,29.622,0,0,1,16.03,0c6.111-4.239,8.794-3.364,8.794-3.364a12.067,12.067,0,0,1,.315,8.685,12.854,12.854,0,0,1,3.294,8.809c0,12.606-7.487,15.381-14.616,16.193a7.981,7.981,0,0,1,2.2,6.077v9.009c0,.873.512,1.9,2.136,1.575A32.765,32.765,0,0,0,64.022,32.818C64.022,14.695,49.69,0,32.011,0Z"/>
</svg>
