<svg xmlns="http://www.w3.org/2000/svg" width="56.446" height="64.509" viewBox="0 0 56.446 64.509">
  <path id="logo_discord" d="M37.448,30.642a3.3,3.3,0,1,1-3.29-3.58A3.436,3.436,0,0,1,37.448,30.642Zm-15.063-3.58a3.593,3.593,0,0,0,0,7.161,3.436,3.436,0,0,0,3.29-3.58A3.416,3.416,0,0,0,22.385,27.062ZM56.446,6.644V64.509c-8.126-7.181-5.527-4.8-14.966-13.579L43.189,56.9H6.612A6.628,6.628,0,0,1,0,50.253V6.644A6.628,6.628,0,0,1,6.612,0H49.834A6.628,6.628,0,0,1,56.446,6.644ZM47.253,37.222a43.194,43.194,0,0,0-4.645-18.8,15.95,15.95,0,0,0-9.064-3.387l-.452.516a21.466,21.466,0,0,1,8.031,4.1,27.407,27.407,0,0,0-24.094-.935c-1.193.548-1.9.935-1.9.935s2.677-2.548,8.483-4.225l-.323-.387a15.95,15.95,0,0,0-9.064,3.387,43.194,43.194,0,0,0-4.645,18.8s2.709,4.677,9.838,4.9c0,0,1.193-1.451,2.161-2.677a10.032,10.032,0,0,1-5.645-3.806c.474.332,1.257.763,1.322.806a23.512,23.512,0,0,0,20.127,1.129,18.457,18.457,0,0,0,3.709-1.9,10.178,10.178,0,0,1-5.838,3.838c.968,1.226,2.129,2.613,2.129,2.613C44.511,41.9,47.253,37.222,47.253,37.222Z" fill="#8998f0"/>
</svg>
