<svg xmlns="http://www.w3.org/2000/svg" width="331.499" height="66.118" viewBox="0 0 331.499 66.118">
	<g id="Logo" transform="translate(-89.501 -554)">
		<text id="WhiteHat_Sr." data-name="WhiteHat Sr." transform="translate(180 606.118)" fill="#fff" font-size="40" font-family="Poppins-Regular, Poppins, Sans-serif">
			<tspan x="0" y="0">
				WhiteHat Sr.
			</tspan>
		</text>
		<path id="Intersection_3" data-name="Intersection 3" d="M-2630,706.748c0-8.307,9.379-9.6,16.624-9.966a7.972,7.972,0,0,0-.65,3.169c0,7.821,17.644,19.668,37.781,19.655,8.916,0,15.695-3.358,15.695-9.409a21.569,21.569,0,0,0-.744-4.379l.012-.006c8.542,3.727,13.282,9.969,13.282,15.464,0,6.99-4.92,15.84-24.426,15.84C-2597.868,737.116-2630,720.352-2630,706.748Zm54.7,3.982c-20.952,0-36.59-13.064-36.59-17.05-.027-.641-.222-.115,4.182-12.576,1.3-3.634,2.985-5.4,5.573-5.4,2.691,0,4.823,2.419,7.706,2.419,2.989,0,3.717-3.239,6.226-3.239,2.691,0,11.793,3.539,15.971,5.682,5.385,2.7,6.038,4.1,6.776,7.173,3.483,15.172,3.38,14.38,3.345,15.464,0,6.437-7.8,7.552-13.188,7.552Z" transform="translate(2719.5 -120.882)" fill="#fff" opacity="0.848" />
	</g>
</svg>
