<svg xmlns="http://www.w3.org/2000/svg" width="54" height="54" viewBox="0 0 54 54">
  <path id="team-icon" d="M-2606-774a26.834,26.834,0,0,1-10.51-2.122,26.913,26.913,0,0,1-8.582-5.786,26.908,26.908,0,0,1-5.786-8.582A26.836,26.836,0,0,1-2633-801a26.836,26.836,0,0,1,2.122-10.51,26.908,26.908,0,0,1,5.786-8.582,26.913,26.913,0,0,1,8.582-5.786A26.834,26.834,0,0,1-2606-828a26.832,26.832,0,0,1,10.51,2.122,26.914,26.914,0,0,1,8.582,5.786,26.908,26.908,0,0,1,5.786,8.582A26.831,26.831,0,0,1-2579-801a26.831,26.831,0,0,1-2.122,10.51,26.908,26.908,0,0,1-5.786,8.582,26.914,26.914,0,0,1-8.582,5.786A26.832,26.832,0,0,1-2606-774Zm6.5-25c-.392,0-.854.024-1.455.076A6.285,6.285,0,0,1-2598-793.75V-790h9v-3.749c0-1.076-.683-2.633-3.939-3.936A19.493,19.493,0,0,0-2599.5-799Zm-12,0a19.5,19.5,0,0,0-6.56,1.314c-3.256,1.3-3.939,2.86-3.939,3.936V-790h21v-3.749c0-1.076-.683-2.633-3.939-3.936A19.5,19.5,0,0,0-2611.5-799Zm12-12a4.505,4.505,0,0,0-4.5,4.5,4.505,4.505,0,0,0,4.5,4.5,4.449,4.449,0,0,0,3.176-1.316,4.481,4.481,0,0,0,1.309-3.184,4.481,4.481,0,0,0-1.309-3.184A4.449,4.449,0,0,0-2599.5-811Zm-12,0a4.505,4.505,0,0,0-4.5,4.5,4.505,4.505,0,0,0,4.5,4.5,4.449,4.449,0,0,0,3.177-1.316,4.48,4.48,0,0,0,1.309-3.184,4.48,4.48,0,0,0-1.309-3.184A4.449,4.449,0,0,0-2611.5-811Z" transform="translate(2633 828)" fill="#fff" opacity="0.85"/>
</svg>
